<?xml version="1.0" encoding="UTF-8" standalone="no"?>
<!-- Created with Inkscape (http://www.inkscape.org/) -->

<svg
   xmlns:dc="http://purl.org/dc/elements/1.1/"
   xmlns:cc="http://creativecommons.org/ns#"
   xmlns:rdf="http://www.w3.org/1999/02/22-rdf-syntax-ns#"
   xmlns:svg="http://www.w3.org/2000/svg"
   xmlns="http://www.w3.org/2000/svg"
   xmlns:sodipodi="http://sodipodi.sourceforge.net/DTD/sodipodi-0.dtd"
   xmlns:inkscape="http://www.inkscape.org/namespaces/inkscape"
   id="svg2"
   version="1.1"
   inkscape:version="0.48.5 r10040"
   width="1661.052"
   height="360.13138"
   viewBox="0 0 1661.052 360.12128"
   xml:space="preserve"
   sodipodi:docname="PurpleTagLogo.svg"><title
     id="title4451">PurpleTag.ie Logo</title><metadata
     id="metadata8"><rdf:RDF><cc:Work
         rdf:about=""><dc:format>image/svg+xml</dc:format><dc:type
           rdf:resource="http://purl.org/dc/dcmitype/StillImage" /><dc:title>PurpleTag.ie Logo</dc:title><dc:creator><cc:Agent><dc:title>Fred Karlsson</dc:title></cc:Agent></dc:creator></cc:Work></rdf:RDF></metadata><defs
     id="defs6"><clipPath
       clipPathUnits="userSpaceOnUse"
       id="clipPath16"><path
         d="m 0,336.842 1413.158,0 L 1413.158,0 0,0 0,336.842 z"
         id="path18"
         inkscape:connector-curvature="0" /></clipPath><linearGradient
       x1="0"
       y1="0"
       x2="1"
       y2="0"
       gradientUnits="userSpaceOnUse"
       gradientTransform="matrix(-1.05e-5,240.91309,240.91309,1.05e-5,149.72363,75.949219)"
       spreadMethod="pad"
       id="linearGradient66"><stop
         style="stop-opacity:1;stop-color:#5f247f"
         offset="0"
         id="stop68" /><stop
         style="stop-opacity:1;stop-color:#783295"
         offset="1"
         id="stop70" /></linearGradient></defs><sodipodi:namedview
     pagecolor="#ffffff"
     bordercolor="#666666"
     borderopacity="1"
     objecttolerance="10"
     gridtolerance="10"
     guidetolerance="10"
     inkscape:pageopacity="0"
     inkscape:pageshadow="2"
     inkscape:window-width="1150"
     inkscape:window-height="685"
     id="namedview4"
     showgrid="false"
     fit-margin-top="0"
     fit-margin-left="0"
     fit-margin-right="0"
     fit-margin-bottom="0"
     showborder="true"
     borderlayer="false"
     inkscape:showpageshadow="false"
     inkscape:zoom="0.20436469"
     inkscape:cx="814.84719"
     inkscape:cy="174.57887"
     inkscape:window-x="1051"
     inkscape:window-y="219"
     inkscape:window-maximized="0"
     inkscape:current-layer="g10" /><g
     id="g10"
     inkscape:groupmode="layer"
     inkscape:label="PurpleTag Logo"
     transform="matrix(1.25,0,0,-1.25,-36.571905,396.07875)"><g
       id="g12"><g
         id="g14"
         clip-path="url(#clipPath16)"><g
           id="g20"
           transform="translate(1318.5581,187.4209)"><path
             d="m 0,0 c 7.645,-4.347 13.549,-10.259 17.722,-17.743 4.169,-7.481 6.255,-15.991 6.255,-25.529 0,-14.658 -4.538,-26.487 -13.612,-35.481 -9.077,-8.998 -21.062,-13.493 -35.967,-13.493 -14.751,0 -26.754,4.537 -36.023,13.61 -9.265,9.073 -13.897,20.547 -13.897,34.432 0,9.147 2.237,17.658 6.717,25.53 4.476,7.874 10.655,14.039 18.534,18.496 7.876,4.461 16.406,6.693 25.596,6.693 C -15.872,6.515 -7.645,4.341 0,0 M 31.291,-10.465 C 26.525,-0.936 16.996,5.964 7.467,13.359 c -7.147,5.544 -24.846,8.859 -34.279,8.859 -11.358,0 -22.162,-2.95 -32.408,-8.841 -10.241,-5.896 -18.257,-13.901 -24.055,-24.021 -5.798,-10.123 -8.697,-21.039 -8.697,-32.746 0,-11.712 2.782,-22.451 8.347,-32.222 5.565,-9.771 13.447,-17.546 23.651,-23.325 10.204,-5.779 21.108,-8.665 32.703,-8.665 9.892,0 19.244,2.077 28.056,6.227 8.814,4.146 16.273,10.097 22.382,17.854 l 0,-6.515 c 0,-13.954 -1.624,-24.06 -4.872,-30.318 -3.248,-6.259 -8.678,-11.457 -16.295,-15.593 -7.616,-4.132 -16.95,-6.202 -28.007,-6.202 -11.214,0 -20.607,2.014 -28.182,6.049 -7.576,4.034 -13.763,10.236 -18.556,18.612 l -17.608,0 c 4.556,-9.953 9.54,-17.519 14.946,-22.693 5.402,-5.173 12.41,-9.297 21.022,-12.368 8.608,-3.07 18.319,-4.606 29.132,-4.606 14.751,0 27.373,3.14 37.875,9.423 10.502,6.281 17.878,15.237 22.126,26.87 3.09,8.217 4.634,21.209 4.634,38.968 0,0 0.159,23.13 0.159,38.076 0,14.946 -3.486,23.824 -8.25,33.353"
             style="fill:#5f247f;fill-opacity:1;fill-rule:nonzero;stroke:none"
             id="path22"
             inkscape:connector-curvature="0" /></g><g
           id="g24"
           transform="translate(1167.2378,179.1777)"><path
             d="m 0,0 c 9.603,-9.839 14.405,-22.08 14.405,-36.719 0,-9.604 -2.14,-18.24 -6.421,-25.908 -4.281,-7.669 -10.395,-13.75 -18.337,-18.244 -7.943,-4.49 -16.35,-6.738 -25.223,-6.738 -8.794,0 -17.026,2.266 -24.704,6.797 -7.672,4.534 -13.786,10.862 -18.337,18.995 -4.545,8.132 -6.822,16.657 -6.822,25.564 0,8.983 2.251,17.503 6.766,25.563 4.514,8.053 10.585,14.309 18.222,18.765 7.635,4.452 15.969,6.683 24.99,6.683 C -21.424,14.758 -9.604,9.836 0,0 m 11.082,10.365 c -12.203,14.814 -30.923,20.096 -47.873,20.096 -17.915,0 -33.246,-6.478 -45.986,-19.427 -12.741,-12.954 -19.11,-28.542 -19.11,-46.762 0,-18.612 6.31,-34.414 18.937,-47.4 12.624,-12.992 27.859,-19.487 45.697,-19.487 10.038,0 19.283,2.094 27.741,6.282 8.455,4.187 16.081,10.427 22.875,18.728 l 0,-21.753 15.988,0 c 0,0 -0.066,44.724 0.363,63.783 0.427,19.058 -4.337,28.588 -18.632,45.94"
             style="fill:#5f247f;fill-opacity:1;fill-rule:nonzero;stroke:none"
             id="path26"
             inkscape:connector-curvature="0" /></g><g
           id="g28"
           transform="translate(1008.0581,234.1826)"><path
             d="m 0,0 0,-154.363 17.374,0 0,154.363 52.287,0 0,16.751 -121.946,0 L -52.285,0 0,0 z"
             style="fill:#5f247f;fill-opacity:1;fill-rule:nonzero;stroke:none"
             id="path30"
             inkscape:connector-curvature="0" /></g><g
           id="g32"
           transform="translate(843.2739,155.8965)"><path
             d="m 0,0 c 3.321,11.632 8.229,20.356 14.726,26.173 8.891,7.985 19.524,11.981 31.895,11.981 7.497,0 14.648,-1.591 21.455,-4.77 6.803,-3.182 12.27,-7.369 16.406,-12.562 C 88.625,15.625 91.774,8.682 93.938,0 L 0,0 z m 80.138,-52.043 c -4.254,-3.71 -9.413,-6.687 -15.487,-8.926 -6.067,-2.237 -12.31,-3.359 -18.726,-3.359 -13.299,0 -24.472,4.7 -33.517,14.099 -9.046,9.404 -13.721,21.455 -14.033,36.154 l 113.402,0 C 111.62,3.215 106.984,17.64 97.865,29.197 85.033,45.557 67.878,53.742 46.39,53.742 25.521,53.742 8.863,45.752 -3.579,29.779 -13.396,17.216 -18.301,2.908 -18.301,-13.145 c 0,-17.062 5.797,-32.362 17.388,-45.892 11.595,-13.53 27.671,-20.297 48.227,-20.297 9.279,0 17.584,1.415 24.931,4.243 7.343,2.83 13.951,6.962 19.823,12.392 5.875,5.425 11.056,12.562 15.536,21.404 l -13.666,7.211 c -4.951,-8.269 -9.548,-14.251 -13.8,-17.959"
             style="fill:#848494;fill-opacity:1;fill-rule:nonzero;stroke:none"
             id="path34"
             inkscape:connector-curvature="0" /></g><path
           d="m 784.091,76.897 16.217,0 0,178.341 -16.217,0 0,-178.341 z"
           style="fill:#848494;fill-opacity:1;fill-rule:nonzero;stroke:none"
           id="path36"
           inkscape:connector-curvature="0" /><g
           id="g38"
           transform="translate(720.5688,187.2529)"><path
             d="m 0,0 c 7.626,-4.456 13.688,-10.712 18.198,-18.766 4.508,-8.059 6.76,-16.579 6.76,-25.562 0,-8.907 -2.27,-17.432 -6.816,-25.565 -4.545,-8.132 -10.651,-14.461 -18.32,-18.994 -7.663,-4.531 -15.847,-6.798 -24.557,-6.798 -8.861,0 -17.272,2.248 -25.246,6.739 -7.976,4.494 -14.1,10.575 -18.376,18.244 -4.276,7.668 -6.416,16.304 -6.416,25.908 0,14.639 4.796,26.88 14.387,36.719 9.594,9.836 21.4,14.758 35.423,14.758 C -15.95,6.683 -7.631,4.452 0,0 m -89.831,-158.495 16.221,0 0,72.814 c 6.783,-8.3 14.387,-14.54 22.79,-18.727 8.412,-4.189 17.626,-6.282 27.657,-6.282 17.821,0 33.036,6.495 45.65,19.487 12.616,12.986 18.919,28.788 18.919,47.4 0,18.22 -6.365,33.808 -19.09,46.762 -12.731,12.949 -28.044,19.427 -45.944,19.427 -10.256,0 -19.553,-2.21 -27.881,-6.631 -8.338,-4.42 -14.797,-7.428 -21.199,-16.267 0,0 -1.814,0.987 -9.51,-12.151 -7.706,-13.139 -7.613,-32.163 -7.613,-32.163 l 0,-113.669 z"
             style="fill:#848494;fill-opacity:1;fill-rule:nonzero;stroke:none"
             id="path40"
             inkscape:connector-curvature="0" /></g><g
           id="g42"
           transform="translate(567.2417,76.8975)"><path
             d="m 0,0 16.562,0 0,45.73 c 0,21.943 1.003,36.526 3.013,43.739 2.623,9.38 6.446,16.302 11.466,20.761 5.022,4.459 10.232,6.691 15.639,6.691 2.318,0 5.174,-0.74 8.57,-2.21 l 8.456,13.726 c -5.096,2.866 -9.889,4.304 -14.364,4.304 -5.946,0 -12.33,-1.133 -18.165,-4.135 -7.012,-3.605 -11.344,-7.618 -15.68,-11.702 C 11.16,112.821 5.251,102.267 2.598,89.603 -1.255,71.21 -0.193,42.883 -0.193,42.883 L 0,0 z"
             style="fill:#848494;fill-opacity:1;fill-rule:nonzero;stroke:none"
             id="path44"
             inkscape:connector-curvature="0" /></g><g
           id="g46"
           transform="translate(439.9282,145.4277)"><path
             d="m 0,0 c 0,-17.994 2.027,-31.464 6.082,-40.426 4.052,-8.952 10.192,-15.931 18.416,-20.937 8.224,-5.003 18.474,-7.502 30.752,-7.502 12.278,0 22.49,2.499 30.637,7.502 8.147,5.006 14.247,11.924 18.303,20.765 4.052,8.841 6.082,21.986 6.082,39.434 l 0,62.117 -16.565,0 0,-59.094 c 0,-15.818 -0.812,-26.171 -2.436,-31.057 -2.398,-7.138 -6.75,-12.893 -13.051,-17.276 -6.304,-4.383 -13.981,-6.57 -23.026,-6.57 -9.05,0 -16.841,2.247 -23.374,6.745 -6.538,4.496 -10.963,10.624 -13.285,18.381 -1.546,5.425 -2.32,15.354 -2.32,29.777 l 0,59.094 L 0,60.953 0,0 z"
             style="fill:#848494;fill-opacity:1;fill-rule:nonzero;stroke:none"
             id="path48"
             inkscape:connector-curvature="0" /></g><g
           id="g50"
           transform="translate(381.1636,234.8994)"><path
             d="m 0,0 c 7.626,-4.454 13.694,-10.712 18.2,-18.766 4.507,-8.056 6.761,-16.577 6.761,-25.561 0,-8.91 -2.273,-17.433 -6.818,-25.566 -4.545,-8.132 -10.65,-14.461 -18.319,-18.994 -7.664,-4.531 -15.849,-6.798 -24.554,-6.798 -8.862,0 -17.277,2.248 -25.253,6.739 -7.973,4.494 -14.099,10.575 -18.372,18.244 -4.279,7.668 -6.415,16.304 -6.415,25.908 0,14.64 4.796,26.88 14.389,36.719 9.59,9.836 21.395,14.758 35.417,14.758 C -15.948,6.683 -7.626,4.452 0,0 m -89.828,-158.495 16.217,0 0,72.814 c 6.787,-8.3 14.385,-14.54 22.796,-18.727 8.407,-4.188 17.625,-6.282 27.654,-6.282 17.822,0 33.037,6.497 45.649,19.487 12.615,12.986 18.921,28.788 18.921,47.4 0,18.22 -6.365,33.808 -19.094,46.762 -12.729,12.949 -28.044,19.427 -45.939,19.427 -10.259,0 -19.555,-2.21 -27.885,-6.631 -8.333,-4.42 -14.792,-7.428 -21.196,-16.267 0,0 -1.813,0.987 -9.514,-12.151 -7.703,-13.137 -7.609,-32.163 -7.609,-32.163 l 0,-113.669 z"
             style="fill:#848494;fill-opacity:1;fill-rule:nonzero;stroke:none"
             id="path52"
             inkscape:connector-curvature="0" /></g></g></g><g
       id="g54"><g
         id="g56"><g
           id="g62"><g
             id="g64"><path
               d="m 209.047,312.909 c -2.509,-1.235 -5.346,-2.966 -7.175,-4.304 l 0,0 c -5.537,-4.064 -9.678,-8.903 -12.908,-15.297 l 0,0 c -2.274,-4.494 -3.461,-9.403 -3.964,-14.82 l 0,0 c -0.716,-7.645 -0.377,-13.728 0.623,-20.087 l 0,0 c 0.493,-3.13 1.308,-6.352 1.908,-9.562 l 0,0 c 0.726,-3.89 0.949,-7.049 2.187,-9.561 l 0,0 c 1.546,-3.147 2.02,-6.082 6.049,-5.584 l 0,0 c 9.799,1.195 3.495,15.036 2.42,21.223 l 0,0 c -0.632,3.721 -1.071,7.924 -1.544,11.925 l 0,0 c -0.885,7.24 -0.718,13.646 1.037,18.659 l 0,0 c 1.94,5.57 5.881,10.218 9.328,13.477 l 0,0 c 1.736,1.645 3.891,2.692 5.696,3.627 l 0,0 c 3.206,1.669 7.594,3.294 11.93,3.633 l 0,0 c 6.166,0.471 11.41,-1.181 15.025,-2.593 l 0,0 c 0.796,-0.312 0.925,-1.654 1.643,-2.01 l 0,0 c 2.088,-1.073 4.392,-1.598 6.132,-3.175 l 0,0 c 2.168,-1.955 3.815,-3.649 5.183,-5.701 l 0,0 c 5.462,-8.168 6.721,-19.4 5.709,-32.142 l 0,0 c -0.247,-3.052 -1.047,-6.199 -1.558,-9.325 l 0,0 c -2.295,-14.188 -4.365,-21.427 -9.846,-33.694 l 0,0 c -1.071,-2.394 -2.88,-5.188 -3.624,-7.26 l 0,0 c -1.378,-3.834 -2.118,-7.79 3.997,-8.346 l 0,0 c 6.341,-0.243 8.143,6.779 10.454,11.95 l 0,0 c 6.818,15.239 12.559,36.641 12.438,56.413 l 0,0 c -0.083,12.178 -4.151,22.935 -9.022,29.646 l 0,0 c -2.104,2.879 -4.001,4.88 -6.22,6.694 l 0,0 c -2.458,2.008 -5.469,4.404 -8.125,5.737 l 0,0 c -4.034,2.015 -10.116,3.867 -15.778,4.304 l 0,0 c -1.116,0.086 -2.23,0.127 -3.333,0.127 l 0,0 c -7.365,0 -14.296,-1.807 -18.662,-3.954 m -73.943,-34.43 c -2.703,-0.375 -4.809,-3.297 -8.05,-6.54 l 0,0 c -33.107,-33.11 -51.006,-51.01 -83.232,-83.24 l 0,0 C 38.849,183.731 32.037,178.5 30.235,172.6 l 0,0 c -3.551,-11.612 3.248,-16.331 9.564,-22.651 l 0,0 c 21.75,-21.748 42.04,-42.034 63.41,-63.4 l 0,0 c 3.612,-3.621 6.95,-8.022 11.571,-9.567 l 0,0 c 8.468,-2.834 14.378,0.6 19.127,5.03 l 0,0 c 2.618,2.442 5.359,5.359 7.548,7.547 l 0,0 c 32.638,32.641 51.353,51.866 83.742,84.238 l 0,0 c 2.759,2.768 6.063,5.057 7.04,8.053 l 0,0 c 0.968,2.978 0.885,7.362 1.005,11.074 l 0,0 c 0.144,4.096 -0.317,7.979 -0.493,12.081 l 0,0 c -0.391,8.214 -0.451,16.694 -1.024,23.655 l 0,0 c -0.613,7.604 -1.75,15.015 -2.512,22.138 l 0,0 c -0.786,7.484 -0.493,15.123 -4.016,21.141 l 0,0 c -5.155,3.078 -13.237,3.213 -20.64,4.023 l 0,0 c -0.833,-5.081 0.908,-11.8 1.511,-17.107 l 0,0 c 0.206,-1.372 1.791,-1.82 2.518,-2.514 l 0,0 c 2.732,-2.65 5.067,-6.061 6.034,-10.068 l 0,0 c 2.988,-12.339 -4.666,-22.294 -14.088,-25.16 l 0,0 c -13.167,-4.013 -24.234,4.499 -26.681,14.588 l 0,0 c -1.656,6.89 0.401,12.571 3.025,17.616 l 0,0 c -1.209,7.613 -3.443,16.547 -2.005,25.162 l 0,0 c -4.84,-0.039 -9.738,0.158 -14.576,0.355 l 0,0 c -4.427,0.181 -8.806,0.361 -13.04,0.361 l 0,0 c -4.223,0 -8.302,-0.179 -12.151,-0.716"
               style="fill:url(#linearGradient66);stroke:none"
               id="path72"
               inkscape:connector-curvature="0" /></g></g></g></g></g></svg>